<?xml version="1.0" standalone="no"?>
<!DOCTYPE svg PUBLIC "-//W3C//DTD SVG 20010904//EN"
 "http://www.w3.org/TR/2001/REC-SVG-20010904/DTD/svg10.dtd">
<svg version="1.0" xmlns="http://www.w3.org/2000/svg"
 width="171.000000pt" height="130.000000pt" viewBox="0 0 171.000000 130.000000"
 preserveAspectRatio="xMidYMid meet">

<g transform="translate(0.000000,130.000000) scale(0.100000,-0.100000)"
fill="#000000" stroke="none">
<path d="M496 1270 c-39 -10 -106 -33 -151 -50 l-82 -32 -46 -76 c-84 -139
-139 -276 -178 -437 -16 -68 -23 -134 -26 -271 l-6 -181 63 -43 c109 -74 358
-187 374 -169 2 2 22 33 45 69 l42 64 -68 34 c-83 41 -82 40 -59 57 16 12 25
11 70 -7 126 -50 226 -68 381 -68 144 0 231 14 355 59 67 25 81 27 97 16 22
-17 22 -16 -60 -57 l-68 -34 42 -64 c23 -36 43 -67 45 -69 16 -18 265 95 374
169 l63 43 -6 181 c-3 137 -10 203 -26 271 -39 161 -94 298 -178 436 -46 77
-46 77 -125 108 -88 34 -219 71 -254 71 -18 0 -28 -11 -43 -45 -19 -43 -21
-44 -53 -37 -43 9 -283 9 -326 0 -31 -7 -33 -6 -54 37 -26 52 -35 54 -142 25z
m143 -530 c102 -51 119 -200 34 -285 -134 -134 -336 68 -229 228 49 73 122 95
195 57z m560 5 c119 -61 128 -226 17 -309 -39 -29 -121 -28 -163 2 -40 28 -73
96 -73 149 0 117 125 207 219 158z"/>
</g>
</svg>
